<?xml version="1.0" encoding="UTF-8" standalone="no"?>
<!-- Created with Inkscape (http://www.inkscape.org/) -->

<svg
   xmlns:dc="http://purl.org/dc/elements/1.1/"
   xmlns:cc="http://creativecommons.org/ns#"
   xmlns:rdf="http://www.w3.org/1999/02/22-rdf-syntax-ns#"
   xmlns:svg="http://www.w3.org/2000/svg"
   xmlns="http://www.w3.org/2000/svg"
   xmlns:sodipodi="http://sodipodi.sourceforge.net/DTD/sodipodi-0.dtd"
   xmlns:inkscape="http://www.inkscape.org/namespaces/inkscape"
   version="1.1"
   id="svg2"
   xml:space="preserve"
   width="895.12"
   height="482.23999"
   viewBox="0 0 895.12 482.23999"
   sodipodi:docname="Logo_rect_coul.svg"
   inkscape:version="0.92.5 (2060ec1f9f, 2020-04-08)"><metadata
     id="metadata8"><rdf:RDF><cc:Work
         rdf:about=""><dc:format>image/svg+xml</dc:format><dc:type
           rdf:resource="http://purl.org/dc/dcmitype/StillImage" /><dc:title></dc:title></cc:Work></rdf:RDF></metadata><defs
     id="defs6" /><sodipodi:namedview
     pagecolor="#ffffff"
     bordercolor="#666666"
     borderopacity="1"
     objecttolerance="10"
     gridtolerance="10"
     guidetolerance="10"
     inkscape:pageopacity="0"
     inkscape:pageshadow="2"
     inkscape:window-width="882"
     inkscape:window-height="480"
     id="namedview4"
     showgrid="false"
     inkscape:zoom="0.48938289"
     inkscape:cx="447.56"
     inkscape:cy="241.12"
     inkscape:window-x="66"
     inkscape:window-y="27"
     inkscape:window-maximized="0"
     inkscape:current-layer="g10" /><g
     id="g10"
     inkscape:groupmode="layer"
     inkscape:label="ink_ext_XXXXXX"
     transform="matrix(1.3333333,0,0,-1.3333333,0,482.24)"><g
       id="g12"
       transform="scale(0.1)"><path
         d="m 3156.39,2843 c -242.85,339.52 -623.67,550.39 -1072.38,593.83 -453.04,43.87 -920.45,-87.79 -1316.084,-370.77 l -69.813,-49.96 -99.886,139.65 69.804,49.94 c 429.409,307.15 938.139,449.93 1432.559,402.02 498.78,-48.3 923.34,-284.38 1195.44,-664.81 74.11,-103.62 -73.74,-191.99 -139.64,-99.9"
         style="fill:#80cc28;fill-opacity:1;fill-rule:nonzero;stroke:none"
         id="path14"
         inkscape:connector-curvature="0" /><path
         d="M 1318.65,15.4492 C 891.699,138.852 524.918,413.469 285.996,788.82 72.125,1124.81 -24.9102,1511.76 5.44531,1907.83 l 73.36719,-5.64 C 49.6836,1522.11 142.789,1150.81 348.098,828.328 577.41,468.109 929.336,204.48 1339.03,86.1094 l -20.38,-70.6602"
         style="fill:#80cc28;fill-opacity:1;fill-rule:nonzero;stroke:none"
         id="path16"
         inkscape:connector-curvature="0" /><path
         d="m 409.313,1114.59 c 41.253,-72.14 193.828,-292.621 284.57,-327.61 90.742,-35.031 317.417,-199.839 317.417,-199.839 0,0 272.14,-104.993 305.08,228.91 32.72,333.869 7.98,469.899 7.98,469.899 0,0 -63.98,274.1 -111.5,406 -30.15,84.02 -80,164.4 -147.41,223.57 -27.81,24.39 -59.31,44.4 -90.528,64.12 -51.973,32.77 -68.766,56.01 -84.297,114.24 -12.617,47.68 -24.711,105.3 -10.254,153.77 18.754,59.62 137.069,185.1 196.809,200.71 35.67,9.36 85.83,-11.06 119.48,-20.82 31.18,-9.1 62.34,-17.83 93.32,-27.73 12.52,-4.04 30.57,-7.11 35.05,-21.48 5.43,-17.17 -14.37,-52.01 -24.68,-64.15 -27.2,-31.96 -79.75,-55.72 -97.92,-76.08 -35,-39.15 8.35,-148.36 92.79,-72.06 41.26,37.27 38.29,97.81 57.26,129.69 19.83,33.34 61.39,37.2 99.31,39.34 74.19,4.16 92.77,-101.37 92.77,-101.37 0,0 1.19,-109.01 38.83,-148.39 18.72,-19.68 55.65,-23 79.63,-12.36 90.68,40 -5.1,132.64 -38.71,177.4 -18.21,24.24 -30.06,52.51 -35.03,82.33 -2.4,14.32 -10.19,44.9 4.97,52.99 16.12,8.62 67.02,-16.72 81.66,-23.53 37.63,-17.62 78.84,-73.6 114.69,-82.07 78.34,-18.51 165.03,83.16 50.65,142.61 -33.61,17.51 -95.78,-7.38 -128.5,1.55 -28.49,7.78 -56.55,17.5 -83.68,29.18 -25.24,10.76 -47.77,41.24 -28.8,66.49 16.95,22.51 41.63,48.84 63.98,65.63 31.13,23.36 107.25,13.22 128.56,47.31 10.5,16.89 22.9,67.64 5.1,85.12 -19.35,19.05 -67.91,33.52 -88.66,17.98 -20.63,-15.39 -50.29,-74.85 -69.16,-91.89 l -70.92,-53.35 c 0,0 -108.52,-58.72 -67.31,75.25 8.53,27.75 7.3,66.55 13.44,99.44 3.62,19.17 5.4,38.79 7.67,58.16 3.93,33.25 9.8,79.72 -34.07,87.44 -26.52,4.65 -56.55,-12.66 -71.96,-33.72 -18.36,-25.23 -0.89,-52.28 7.92,-78.16 8.42,-24.73 19.4,-50.96 22.35,-77.17 3.9,-34.48 -11.17,-73.46 -15.38,-108.34 0,0.14 -8.32,-15.84 -27.66,-12.86 -59.21,9.18 -181.3,27.47 -194.93,29.65 -11.97,1.86 -23.95,3.68 -35.86,5.7 -29.59,5.11 -59.15,10.44 -88.59,16.27 0,0 -130.528,30.87 -188.852,-154.66 0,0 -37.758,-92.78 -68.641,-51.57 -31.008,41.24 -39.293,292.66 -39.293,292.66 0,0 -11.516,149.31 -17.93,249.58 -1.476,23.51 -8.566,41.68 1.598,68.67 11.633,30.74 61.394,56.42 66.43,59 38.496,19.86 -161.012,85.31 -160.582,94.59 C 226.84,2892.98 44.4063,2418.95 4.86328,1903.16 10.082,1900.74 15.1758,1898.4 20.5469,1895.97 315.863,1759.98 262.602,1371.1 409.313,1114.59"
         style="fill:#80cc28;fill-opacity:1;fill-rule:nonzero;stroke:none"
         id="path18"
         inkscape:connector-curvature="0" /><path
         d="m 2645.2,647.922 c 13.54,-26.25 20.79,-57.5 20.79,-94.281 0,-137.192 -105.36,-218.02 -330.75,-218.02 -173.93,0 -308.7,53.91 -450.8,203.379 L 1624.74,328.262 C 1815.83,100.422 2046.13,0 2303.38,0 c 370.34,0 633.3,142.41 695.99,422.281 -124.52,66.5 -242.89,141.891 -354.17,225.641"
         style="fill:#231f20;fill-opacity:1;fill-rule:nonzero;stroke:none"
         id="path20"
         inkscape:connector-curvature="0" /><path
         d="m 2102.68,1385.77 c 62.07,31.56 129.73,47.46 205.61,47.46 215.63,0 286.66,-85.73 286.66,-173.96 0,-112.7 -58.82,-173.94 -200.89,-173.94 h -62.13 c 193.21,-218.08 422.84,-402.51 681.5,-546.111 0.18,6.41 0.46,12.761 0.46,19.332 0,225.449 -159.24,333.199 -269.5,374.859 100.44,51.481 198.46,164.17 198.46,350.36 0,323.4 -279.32,485.11 -629.65,485.11 -149.56,0 -270.32,-28.11 -377.89,-85.83 49.67,-103.27 105.54,-202.57 167.37,-297.28"
         style="fill:#231f20;fill-opacity:1;fill-rule:nonzero;stroke:none"
         id="path22"
         inkscape:connector-curvature="0" /><path
         d="m 2538.53,732.461 c -118.68,99.09 -228.46,208.098 -328.23,326.009 V 749.68 h 203.35 c 48.13,0 89.82,-5.782 124.88,-17.219"
         style="fill:#231f20;fill-opacity:1;fill-rule:nonzero;stroke:none"
         id="path24"
         inkscape:connector-curvature="0" /><path
         d="m 2011.6,1324.99 c -62.29,95.29 -118.78,195 -169.21,298.63 -40.98,-30.69 -80.52,-66.24 -119.63,-107.1 l 249.88,-227.84 c 12.77,13.08 25.78,25.08 38.96,36.31"
         style="fill:#231f20;fill-opacity:1;fill-rule:nonzero;stroke:none"
         id="path26"
         inkscape:connector-curvature="0" /><path
         d="m 3228.56,2335.31 h 45.86 v -278.52 h 144.14 v -41.72 h -190 v 320.24"
         style="fill:#4f4c4c;fill-opacity:1;fill-rule:nonzero;stroke:none"
         id="path28"
         inkscape:connector-curvature="0" /><path
         d="m 3452.15,2335.31 h 45.8 v -320.24 h -45.8 v 320.24"
         style="fill:#4f4c4c;fill-opacity:1;fill-rule:nonzero;stroke:none"
         id="path30"
         inkscape:connector-curvature="0" /><path
         d="m 3650.7,2157.41 h -42.85 v -101.53 h 45.19 c 25.05,0 42.05,1.94 50.95,5.85 8.97,3.88 16.15,9.98 21.56,18.22 5.46,8.26 8.16,17.1 8.16,26.6 0,9.76 -2.89,18.71 -8.59,26.81 -5.77,8.09 -13.88,14.12 -24.45,18.11 -10.55,3.97 -27.19,5.94 -49.97,5.94 z m -3.43,137.12 h -39.42 v -96.28 h 30.51 c 24.43,0 41.82,4.64 52.13,13.96 10.31,9.33 15.47,21.4 15.47,36.23 0,30.71 -19.58,46.09 -58.69,46.09 z m 23.2,-279.46 h -108.49 v 320.24 h 83.93 c 26.4,0 47.03,-3.54 61.89,-10.65 14.8,-7.11 26.16,-16.88 33.95,-29.35 7.74,-12.45 11.67,-26.85 11.67,-43.21 0,-31.48 -16.27,-54.03 -48.81,-67.61 23.39,-4.45 41.93,-14.07 55.81,-28.9 13.81,-14.83 20.75,-32.54 20.75,-53.18 0,-16.37 -4.24,-30.95 -12.59,-43.78 -8.47,-12.85 -20.81,-23.31 -37.09,-31.42 -16.27,-8.11 -36.59,-12.14 -61.02,-12.14"
         style="fill:#4f4c4c;fill-opacity:1;fill-rule:nonzero;stroke:none"
         id="path32"
         inkscape:connector-curvature="0" /><path
         d="m 3952.46,2427.7 -51.82,-68.77 h -25.66 l 30.95,68.77 z m -133.16,-92.39 h 181.54 v -40.78 H 3865.1 v -97.68 h 131.14 v -41.03 H 3865.1 v -99.48 h 140.11 v -40.81 H 3819.3 v 319.78"
         style="fill:#4f4c4c;fill-opacity:1;fill-rule:nonzero;stroke:none"
         id="path34"
         inkscape:connector-curvature="0" /><path
         d="m 4107.98,2296.36 h -13.75 v -101.11 h 17.37 c 23.27,0 39.17,1.99 47.83,5.95 8.6,3.98 15.35,9.98 20.14,18.01 4.84,8.03 7.25,17.16 7.25,27.4 0,10.08 -2.71,19.2 -8.05,27.4 -5.34,8.16 -12.89,13.92 -22.53,17.28 -9.77,3.36 -25.85,5.07 -48.26,5.07 z m -59.61,-281.29 v 320.24 h 80.17 c 32.43,0 58.15,-8.01 77.18,-24.07 19.04,-16.04 28.55,-37.74 28.55,-65.09 0,-18.65 -4.66,-34.78 -14,-48.38 -9.33,-13.6 -22.71,-23.76 -40.08,-30.49 10.18,-6.72 20.19,-15.88 30.02,-27.5 9.76,-11.62 23.51,-31.88 41.25,-60.74 11.18,-18.22 20.08,-31.87 26.83,-41.04 l 16.94,-22.93 h -54.58 l -13.93,21.09 c -0.49,0.77 -1.41,2.07 -2.76,3.91 l -8.9,12.62 -14.25,23.38 -15.28,25.01 c -9.52,13.16 -18.18,23.61 -26.04,31.41 -7.86,7.77 -14.98,13.38 -21.36,16.8 -6.33,3.43 -17.01,5.16 -31.99,5.16 h -11.91 v -139.38 h -45.86"
         style="fill:#4f4c4c;fill-opacity:1;fill-rule:nonzero;stroke:none"
         id="path36"
         inkscape:connector-curvature="0" /><path
         d="m 4323.48,2335.31 h 181.55 v -40.78 h -135.68 v -97.68 h 131.14 v -41.03 h -131.14 v -99.48 h 140.03 v -40.81 h -185.9 v 319.78"
         style="fill:#4f4c4c;fill-opacity:1;fill-rule:nonzero;stroke:none"
         id="path38"
         inkscape:connector-curvature="0" /><path
         d="m 4534.69,2335.79 h 276.03 l -204.64,-279.91 h 204.64 v -40.81 H 4521.6 l 204.88,279.89 h -191.79 v 40.83"
         style="fill:#4f4c4c;fill-opacity:1;fill-rule:nonzero;stroke:none"
         id="path40"
         inkscape:connector-curvature="0" /><path
         d="m 5103.27,2335.31 h 45.69 L 5013.57,2013.7 h -10.38 l -138.01,321.61 h 46.11 l 96.33,-224.88 95.65,224.88"
         style="fill:#4f4c4c;fill-opacity:1;fill-rule:nonzero;stroke:none"
         id="path42"
         inkscape:connector-curvature="0" /><path
         d="m 5317.18,2296.36 c -36.65,0 -66.8,-11.49 -90.38,-34.4 -23.58,-22.93 -35.36,-52.19 -35.36,-87.8 0,-34.53 11.78,-63.27 35.48,-86.18 23.64,-22.93 53.29,-34.4 88.91,-34.4 35.66,0 65.51,11.71 89.38,35.07 23.89,23.39 35.86,52.51 35.86,87.35 0,33.92 -11.97,62.46 -35.86,85.62 -23.87,23.14 -53.22,34.74 -88.03,34.74 z m -1.85,43.54 c 49.49,0 90.69,-15.65 123.6,-46.98 32.91,-31.34 49.36,-70.62 49.36,-117.84 0,-47.23 -16.64,-86.31 -49.79,-117.26 -33.29,-30.93 -75.15,-46.42 -125.69,-46.42 -48.25,0 -88.46,15.49 -120.63,46.42 -32.11,30.95 -48.21,69.73 -48.21,116.34 0,47.84 16.16,87.42 48.57,118.76 32.36,31.33 73.31,46.98 122.79,46.98"
         style="fill:#4f4c4c;fill-opacity:1;fill-rule:nonzero;stroke:none"
         id="path44"
         inkscape:connector-curvature="0" /><path
         d="m 5616.97,2149.25 -34.87,21.18 c -21.86,13.34 -37.39,26.46 -46.66,39.39 -9.21,12.91 -13.82,27.77 -13.82,44.59 0,25.2 8.72,45.68 26.22,61.42 17.5,15.75 40.22,23.63 68.21,23.63 26.71,0 51.26,-7.51 73.56,-22.54 v -52.04 c -23.03,22.2 -47.89,33.32 -74.48,33.32 -14.98,0 -27.26,-3.47 -36.9,-10.39 -9.64,-6.96 -14.42,-15.81 -14.42,-26.62 0,-9.59 3.49,-18.59 10.61,-26.94 7.06,-8.39 18.49,-17.16 34.2,-26.38 l 35.06,-20.72 c 39.04,-23.33 58.58,-53.02 58.58,-89.09 0,-25.68 -8.61,-46.52 -25.8,-62.59 -17.25,-16.03 -39.54,-24.07 -67.04,-24.07 -31.68,0 -60.47,9.72 -86.44,29.16 v 58.24 c 24.73,-31.38 53.41,-47.05 85.95,-47.05 14.37,0 26.34,4 35.91,11.99 9.53,7.98 14.31,18.01 14.31,30.04 0,19.49 -14.06,37.99 -42.18,55.47"
         style="fill:#4f4c4c;fill-opacity:1;fill-rule:nonzero;stroke:none"
         id="path46"
         inkscape:connector-curvature="0" /><path
         d="m 5948.33,2149.25 -34.81,21.18 c -21.86,13.34 -37.46,26.46 -46.66,39.39 -9.27,12.91 -13.88,27.77 -13.88,44.59 0,25.2 8.72,45.68 26.22,61.42 17.56,15.75 40.27,23.63 68.2,23.63 26.78,0 51.27,-7.51 73.63,-22.54 v -52.04 c -23.09,22.2 -47.9,33.32 -74.55,33.32 -14.98,0 -27.25,-3.47 -36.89,-10.39 -9.64,-6.96 -14.43,-15.81 -14.43,-26.62 0,-9.59 3.56,-18.59 10.68,-26.94 7.06,-8.39 18.42,-17.16 34.14,-26.38 l 35.06,-20.72 c 39.04,-23.33 58.56,-53.02 58.56,-89.09 0,-25.68 -8.59,-46.52 -25.78,-62.59 -17.19,-16.03 -39.54,-24.07 -67.04,-24.07 -31.62,0 -60.42,9.72 -86.45,29.16 v 58.24 c 24.8,-31.38 53.47,-47.05 85.95,-47.05 14.37,0 26.34,4 35.92,11.99 9.52,7.98 14.31,18.01 14.31,30.04 0,19.49 -14.06,37.99 -42.18,55.47"
         style="fill:#4f4c4c;fill-opacity:1;fill-rule:nonzero;stroke:none"
         id="path48"
         inkscape:connector-curvature="0" /><path
         d="m 6077.44,2335.31 h 45.87 v -320.24 h -45.87 v 320.24"
         style="fill:#4f4c4c;fill-opacity:1;fill-rule:nonzero;stroke:none"
         id="path50"
         inkscape:connector-curvature="0" /><path
         d="m 6360.42,2172.8 h 107.5 v -135.72 c -39.41,-17.12 -78.53,-25.68 -117.38,-25.68 -53.05,0 -95.41,15.49 -127.09,46.42 -31.75,30.95 -47.59,69.13 -47.59,114.51 0,47.83 16.45,87.63 49.31,119.45 32.84,31.76 74.04,47.68 123.58,47.68 17.99,0 35.13,-1.97 51.33,-5.85 16.21,-3.91 36.66,-11.05 61.46,-21.44 v -46.77 c -38.25,22.16 -76.13,33.23 -113.71,33.23 -35.06,0 -64.53,-11.91 -88.53,-35.77 -23.95,-23.83 -35.98,-53.09 -35.98,-87.78 0,-36.38 12.03,-66.11 35.98,-89.19 24,-23.07 54.89,-34.6 92.64,-34.6 18.3,0 40.29,4.19 65.77,12.6 l 4.35,1.4 v 66.69 h -61.64 v 40.82"
         style="fill:#4f4c4c;fill-opacity:1;fill-rule:nonzero;stroke:none"
         id="path52"
         inkscape:connector-curvature="0" /><path
         d="m 6674.58,2115.02 -3.62,11.7 c -3.25,9.18 -6.94,30.02 -11.12,62.57 -4.22,32.56 -6.31,60.22 -6.31,82.98 0,44.79 8.77,67.19 26.33,67.19 17.13,0 25.67,-21.79 25.67,-65.35 0,-36.22 -3.44,-73.29 -10.32,-111.18 l -6.14,-35.08 -3.68,-13.29 c -1.42,-4.74 -3.44,-7.09 -6.2,-7.09 -1.66,0 -3.19,2.5 -4.61,7.55 z m 33.22,-76.12 c 0,-7.62 -2.7,-14.13 -8.1,-19.46 -5.41,-5.36 -12.04,-8.04 -19.84,-8.04 -8.23,0 -15.16,2.64 -20.75,7.9 -5.58,5.28 -8.35,11.82 -8.35,19.6 0,8.27 2.77,15.18 8.22,20.76 5.53,5.58 12.22,8.38 20.21,8.38 8.22,0 15.1,-2.8 20.51,-8.38 5.4,-5.58 8.1,-12.49 8.1,-20.76"
         style="fill:#4f4c4c;fill-opacity:1;fill-rule:nonzero;stroke:none"
         id="path54"
         inkscape:connector-curvature="0" /><path
         d="m 3261.89,417.648 c 396.36,-168.75 818.65,-235.636 1236.02,-200.609 v 158 H 3689.2 V 1813 H 3228.68 V 432.262 c 11.05,-4.883 22.07,-9.852 33.21,-14.614"
         style="fill:#231f20;fill-opacity:1;fill-rule:nonzero;stroke:none"
         id="path56"
         inkscape:connector-curvature="0" /><path
         d="M 3228.68,313.031 V 26.918 h 1269.23 v 80.344 C 4069.3,72.7188 3635.97,141.371 3228.68,313.031"
         style="fill:#231f20;fill-opacity:1;fill-rule:nonzero;stroke:none"
         id="path58"
         inkscape:connector-curvature="0" /><path
         d="M 5198.93,375.539 V 546.77 c -8.47,-4.09 -16.7,-8.481 -25.24,-12.469 -63.91,-29.871 -139.92,-2.211 -169.75,61.617 -29.85,64 -2.22,140.012 61.69,169.781 45.26,21.121 89.53,43.621 133.3,66.711 v 534.37 H 4770.69 V 254.609 c 144.58,27.852 287.83,68.09 428.24,120.93"
         style="fill:#231f20;fill-opacity:1;fill-rule:nonzero;stroke:none"
         id="path60"
         inkscape:connector-curvature="0" /><path
         d="m 5198.93,1888.36 h -428.24 v -349.31 h 428.24 v 349.31"
         style="fill:#231f20;fill-opacity:1;fill-rule:nonzero;stroke:none"
         id="path62"
         inkscape:connector-curvature="0" /><path
         d="M 4770.69,143.238 V 26.918 h 428.24 v 232.211 c -140.66,-50.57 -283.77,-89.211 -428.24,-115.891"
         style="fill:#231f20;fill-opacity:1;fill-rule:nonzero;stroke:none"
         id="path64"
         inkscape:connector-curvature="0" /><path
         d="m 6274.16,1366.78 c -66.19,-77.21 -136.3,-151.9 -210.65,-223.36 -29.29,-28.16 -59.37,-55.73 -89.83,-82.89 h 233.61 c 87.38,96.24 167.25,198.71 239.09,306.25 h -172.22"
         style="fill:#231f20;fill-opacity:1;fill-rule:nonzero;stroke:none"
         id="path66"
         inkscape:connector-curvature="0" /><path
         d="m 5926.59,1366.78 h -381.94 v -306.25 h 22.04 c 129.42,93.66 249.64,196.26 359.9,306.25"
         style="fill:#231f20;fill-opacity:1;fill-rule:nonzero;stroke:none"
         id="path68"
         inkscape:connector-curvature="0" /><path
         d="M 6159.23,854.078 C 6008.37,709 5839.72,580.441 5655.22,472.168 L 5514.75,326.012 V 26.918 h 1198.7 v 306.25 h -705.81 l 705.81,734.542 v 299.07 H 6576.41 C 6458.96,1180.65 6319.29,1008.04 6159.23,854.078"
         style="fill:#231f20;fill-opacity:1;fill-rule:nonzero;stroke:none"
         id="path70"
         inkscape:connector-curvature="0" /></g></g></svg>