<svg xmlns="http://www.w3.org/2000/svg" width="479.134" height="69.448" viewBox="0 0 479.134 69.448">
  <g id="Group_677" data-name="Group 677" transform="translate(-123.198 -254.629)">
    <path id="Exclusion_4" data-name="Exclusion 4" d="M24.057,68.441a3.628,3.628,0,0,1-3.193-1.855L3.22,36.065a.1.1,0,0,0-.016-.043.113.113,0,0,1-.016-.047A24.052,24.052,0,0,1,44.412,11.207L32.19,32.4c-.031,0-.031.028-.031.059A23.95,23.95,0,0,0,32.7,57.228l-5.426,9.359A3.675,3.675,0,0,1,24.057,68.441Zm0-54.58a8.263,8.263,0,1,0,8.266,8.265A8.273,8.273,0,0,0,24.056,13.862Z" transform="translate(123.698 255.136)" fill="#fff" stroke="rgba(0,0,0,0)" stroke-miterlimit="10" stroke-width="1"/>
    <g id="Group_545" data-name="Group 545" transform="translate(230.552 266.578)">
      <path id="Path_247" data-name="Path 247" d="M275.407,271.566a18.319,18.319,0,0,1,5.823.891,18.546,18.546,0,0,1,4.722,2.308,12.808,12.808,0,0,1,3.2,3.043l-3.673,3.829a19.693,19.693,0,0,0-4.617-3.279,11.839,11.839,0,0,0-5.456-1.285,13.294,13.294,0,0,0-6.741,1.732,12.735,12.735,0,0,0-4.747,4.695,13.114,13.114,0,0,0-1.732,6.741,12.835,12.835,0,0,0,1.836,6.767,13.639,13.639,0,0,0,4.9,4.827,13.07,13.07,0,0,0,6.689,1.783,12.037,12.037,0,0,0,4.931-1.023,9.87,9.87,0,0,0,3.751-2.807,6.321,6.321,0,0,0,1.443-4.092v-.314H275.3V289.77h16.263c.069.524.131,1.049.183,1.573a15.6,15.6,0,0,1,.079,1.574,18.989,18.989,0,0,1-.865,5.666,12.82,12.82,0,0,1-2.7,4.826,14.792,14.792,0,0,1-5.429,4.171,17.306,17.306,0,0,1-7.371,1.547,19.113,19.113,0,0,1-13.535-5.455,18.147,18.147,0,0,1-4.066-6.007,18.971,18.971,0,0,1-1.443-7.423,18.588,18.588,0,0,1,1.443-7.37,18.215,18.215,0,0,1,4.039-5.929,18.67,18.67,0,0,1,6.059-3.961A19.493,19.493,0,0,1,275.407,271.566Z" transform="translate(-256.417 -269.782)" fill="#fff"/>
      <path id="Path_248" data-name="Path 248" d="M332.709,307.129h-.052a15.2,15.2,0,0,1-4.617,2.886,16.234,16.234,0,0,1-13.718-.552,13.1,13.1,0,0,1-5.115-4.984,14.132,14.132,0,0,1-1.836-7.213,15.218,15.218,0,0,1,1.941-7.895,13.4,13.4,0,0,1,5.14-5.037,14.264,14.264,0,0,1,6.978-1.758,11.972,11.972,0,0,1,6.3,1.705,12.518,12.518,0,0,1,4.511,4.7,14.017,14.017,0,0,1,1.679,6.977l-.052,2.308h-21.09a8.833,8.833,0,0,0,3.07,5.9,9.889,9.889,0,0,0,6.583,2.177,8.955,8.955,0,0,0,4.67-1.076,21.653,21.653,0,0,0,2.937-2.072ZM321.43,287.561a9.982,9.982,0,0,0-5.4,1.442,7.237,7.237,0,0,0-3.043,4.958h15.424v-.367a6.021,6.021,0,0,0-1.18-3.148,7.2,7.2,0,0,0-5.8-2.885Z" transform="translate(-266.347 -271.928)" fill="#fff"/>
      <path id="Path_249" data-name="Path 249" d="M375.184,296.964a14.579,14.579,0,0,1-1.863,7.423,13.585,13.585,0,0,1-5.036,5.063,13.937,13.937,0,0,1-7.107,1.836,14.083,14.083,0,0,1-7.136-1.836,13.524,13.524,0,0,1-5.062-5.063,15.726,15.726,0,0,1,0-14.846,13.531,13.531,0,0,1,5.062-5.063,14.084,14.084,0,0,1,7.136-1.836,13.937,13.937,0,0,1,7.107,1.836,13.592,13.592,0,0,1,5.036,5.063A14.579,14.579,0,0,1,375.184,296.964Zm-5.509,0a9.911,9.911,0,0,0-1.076-4.906,8.369,8.369,0,0,0-3.068-3.3,8.216,8.216,0,0,0-4.354-1.18,8.273,8.273,0,0,0-7.476,4.484,9.894,9.894,0,0,0-1.076,4.906,9.773,9.773,0,0,0,1.076,4.852,8.494,8.494,0,0,0,3.095,3.332,8.213,8.213,0,0,0,4.381,1.206,8.085,8.085,0,0,0,4.354-1.206,8.566,8.566,0,0,0,3.068-3.332A9.79,9.79,0,0,0,369.676,296.964Z" transform="translate(-274.094 -271.941)" fill="#fff"/>
      <path id="Path_250" data-name="Path 250" d="M407.484,271.956a10.221,10.221,0,0,1,5.4,1.5,11.173,11.173,0,0,1,3.935,4.038,11.3,11.3,0,0,1,1.469,5.745,11.478,11.478,0,0,1-1.469,5.744,11.262,11.262,0,0,1-3.935,4.117,10.086,10.086,0,0,1-5.4,1.522H398.2v14.06h-5.666V271.956Zm-.106,17.207a4.363,4.363,0,0,0,2.571-.812,6.023,6.023,0,0,0,1.862-2.151,6.228,6.228,0,0,0,.708-2.964A5.945,5.945,0,0,0,411,279.091a4.728,4.728,0,0,0-3.62-1.679H398.2v11.751Z" transform="translate(-282.944 -269.858)" fill="#fff"/>
      <path id="Path_251" data-name="Path 251" d="M459.041,296.964a14.587,14.587,0,0,1-1.862,7.423,13.593,13.593,0,0,1-5.037,5.063,13.935,13.935,0,0,1-7.108,1.836,14.078,14.078,0,0,1-7.135-1.836,13.518,13.518,0,0,1-5.062-5.063,15.72,15.72,0,0,1,0-14.846,13.525,13.525,0,0,1,5.062-5.063,14.079,14.079,0,0,1,7.135-1.836,13.936,13.936,0,0,1,7.108,1.836,13.6,13.6,0,0,1,5.037,5.063A14.587,14.587,0,0,1,459.041,296.964Zm-5.508,0a9.919,9.919,0,0,0-1.076-4.906,8.371,8.371,0,0,0-3.069-3.3,8.214,8.214,0,0,0-4.354-1.18,8.273,8.273,0,0,0-7.475,4.484,9.886,9.886,0,0,0-1.076,4.906,9.765,9.765,0,0,0,1.076,4.852,8.489,8.489,0,0,0,3.095,3.332,8.21,8.21,0,0,0,4.381,1.206,8.083,8.083,0,0,0,4.354-1.206,8.568,8.568,0,0,0,3.069-3.332A9.8,9.8,0,0,0,453.533,296.964Z" transform="translate(-290.436 -271.941)" fill="#fff"/>
      <path id="Path_252" data-name="Path 252" d="M490.186,290.459a13.038,13.038,0,0,0-3.332-2.413,7.675,7.675,0,0,0-3.435-.944,9.155,9.155,0,0,0-2.177.263,3.881,3.881,0,0,0-1.811.97,2.746,2.746,0,0,0-.734,2.072,2.833,2.833,0,0,0,1.705,2.675,22.79,22.79,0,0,0,4.118,1.416,32.425,32.425,0,0,1,4.2,1.443,8.568,8.568,0,0,1,3.383,2.518,7.193,7.193,0,0,1,1.338,4.642A6.919,6.919,0,0,1,492,307.509a9.236,9.236,0,0,1-3.724,2.807,12.151,12.151,0,0,1-4.8.97,16.906,16.906,0,0,1-5.9-1.076,11.085,11.085,0,0,1-4.957-3.7l3.671-3.147a10.632,10.632,0,0,0,3.227,2.544,9.711,9.711,0,0,0,4.433.919,6.119,6.119,0,0,0,1.993-.341,4.112,4.112,0,0,0,1.705-1.1,2.92,2.92,0,0,0,.708-2.072,2.561,2.561,0,0,0-.762-1.968,5.75,5.75,0,0,0-2.019-1.154,28.538,28.538,0,0,0-2.781-.813,36.863,36.863,0,0,1-4.432-1.547,9.486,9.486,0,0,1-3.62-2.623,6.955,6.955,0,0,1-1.443-4.642,6.6,6.6,0,0,1,1.391-4.223,9.17,9.17,0,0,1,3.646-2.729,12.072,12.072,0,0,1,4.826-.97,15.741,15.741,0,0,1,5.352,1.049,10.837,10.837,0,0,1,4.774,3.357Z" transform="translate(-298.551 -271.941)" fill="#fff"/>
      <path id="Path_253" data-name="Path 253" d="M515.724,309.2h-5.4V286.9H504.6v-5.245h5.719v-7.03h5.4v7.03h6.4V286.9h-6.4Z" transform="translate(-304.785 -270.379)" fill="#fff"/>
      <path id="Path_254" data-name="Path 254" d="M536.785,296.964a9.482,9.482,0,0,0,1.233,4.852,9.349,9.349,0,0,0,3.253,3.357,8.15,8.15,0,0,0,4.328,1.233,7.731,7.731,0,0,0,4.564-1.364,15.791,15.791,0,0,0,3.147-2.832l2.991,3.672a11.264,11.264,0,0,1-2.729,2.649,15.363,15.363,0,0,1-3.934,1.994,14.069,14.069,0,0,1-4.617.76A12.655,12.655,0,0,1,538.2,309.4a13.442,13.442,0,0,1-4.8-5.141,16.06,16.06,0,0,1,0-14.61,13.5,13.5,0,0,1,4.8-5.114,12.655,12.655,0,0,1,6.819-1.889,14.618,14.618,0,0,1,6.82,1.547,10.788,10.788,0,0,1,4.46,4.013l-2.991,3.673a10.2,10.2,0,0,0-3.435-3.069,8.662,8.662,0,0,0-4.328-1.286,8.3,8.3,0,0,0-4.459,1.233,8.808,8.808,0,0,0-3.148,3.357A10,10,0,0,0,536.785,296.964Z" transform="translate(-310.055 -271.941)" fill="#fff"/>
      <path id="Path_255" data-name="Path 255" d="M596.134,296.964a14.588,14.588,0,0,1-1.862,7.423,13.593,13.593,0,0,1-5.037,5.063,13.935,13.935,0,0,1-7.108,1.836,14.083,14.083,0,0,1-7.136-1.836,13.524,13.524,0,0,1-5.062-5.063,15.726,15.726,0,0,1,0-14.846,13.531,13.531,0,0,1,5.062-5.063,14.083,14.083,0,0,1,7.136-1.836,13.936,13.936,0,0,1,7.108,1.836,13.6,13.6,0,0,1,5.037,5.063A14.588,14.588,0,0,1,596.134,296.964Zm-5.509,0a9.912,9.912,0,0,0-1.075-4.906,8.371,8.371,0,0,0-3.068-3.3,8.214,8.214,0,0,0-4.354-1.18,8.271,8.271,0,0,0-7.476,4.484,9.885,9.885,0,0,0-1.076,4.906,9.764,9.764,0,0,0,1.076,4.852,8.487,8.487,0,0,0,3.094,3.332,8.215,8.215,0,0,0,4.381,1.206,8.083,8.083,0,0,0,4.354-1.206,8.568,8.568,0,0,0,3.068-3.332A9.791,9.791,0,0,0,590.625,296.964Z" transform="translate(-317.154 -271.941)" fill="#fff"/>
      <path id="Path_256" data-name="Path 256" d="M637.193,269.35v38.821h-5.4v-3.882a11.825,11.825,0,0,1-3.567,3.016,10.349,10.349,0,0,1-5.352,1.39,12.574,12.574,0,0,1-6.715-1.836,13.007,13.007,0,0,1-4.721-5.089,16.724,16.724,0,0,1,0-14.82,13.188,13.188,0,0,1,4.669-5.062,12.214,12.214,0,0,1,6.61-1.836,12.073,12.073,0,0,1,9.075,4.038V269.35ZM623.6,304.026a7.762,7.762,0,0,0,4.407-1.258,8.413,8.413,0,0,0,2.938-3.463,12.175,12.175,0,0,0,0-9.888,8.446,8.446,0,0,0-2.938-3.437,7.761,7.761,0,0,0-4.407-1.258,7.668,7.668,0,0,0-4.354,1.258,8.62,8.62,0,0,0-2.964,3.437,11.9,11.9,0,0,0,0,9.888,8.584,8.584,0,0,0,2.964,3.463A7.669,7.669,0,0,0,623.6,304.026Z" transform="translate(-325.268 -269.35)" fill="#fff"/>
      <path id="Path_257" data-name="Path 257" d="M677.915,307.129h-.052a15.2,15.2,0,0,1-4.616,2.886,16.234,16.234,0,0,1-13.718-.552,13.1,13.1,0,0,1-5.115-4.984,14.131,14.131,0,0,1-1.836-7.213,15.218,15.218,0,0,1,1.941-7.895,13.4,13.4,0,0,1,5.141-5.037,14.26,14.26,0,0,1,6.977-1.758,11.972,11.972,0,0,1,6.3,1.705,12.519,12.519,0,0,1,4.511,4.7,14.017,14.017,0,0,1,1.68,6.977l-.052,2.308H657.98a8.828,8.828,0,0,0,3.069,5.9,9.889,9.889,0,0,0,6.583,2.177,8.954,8.954,0,0,0,4.67-1.076,21.648,21.648,0,0,0,2.937-2.072Zm-11.279-19.567a9.982,9.982,0,0,0-5.4,1.442,7.238,7.238,0,0,0-3.043,4.958h15.424v-.367a6.03,6.03,0,0,0-1.181-3.148,7.2,7.2,0,0,0-5.8-2.885Z" transform="translate(-333.624 -271.928)" fill="#fff"/>
      <path id="Path_258" data-name="Path 258" d="M709.9,290.459a13.033,13.033,0,0,0-3.332-2.413,7.675,7.675,0,0,0-3.435-.944,9.162,9.162,0,0,0-2.178.263,3.882,3.882,0,0,0-1.81.97,2.746,2.746,0,0,0-.734,2.072,2.834,2.834,0,0,0,1.7,2.675,22.82,22.82,0,0,0,4.119,1.416,32.428,32.428,0,0,1,4.2,1.443,8.568,8.568,0,0,1,3.383,2.518,7.194,7.194,0,0,1,1.338,4.642,6.92,6.92,0,0,1-1.443,4.407,9.237,9.237,0,0,1-3.724,2.807,12.151,12.151,0,0,1-4.8.97,16.906,16.906,0,0,1-5.9-1.076,11.086,11.086,0,0,1-4.957-3.7L696,303.364a10.631,10.631,0,0,0,3.227,2.544,9.712,9.712,0,0,0,4.433.919,6.112,6.112,0,0,0,1.993-.341,4.109,4.109,0,0,0,1.706-1.1,2.92,2.92,0,0,0,.708-2.072,2.561,2.561,0,0,0-.762-1.968,5.747,5.747,0,0,0-2.02-1.154,28.5,28.5,0,0,0-2.78-.813,36.931,36.931,0,0,1-4.433-1.547,9.489,9.489,0,0,1-3.62-2.623,6.955,6.955,0,0,1-1.443-4.642,6.6,6.6,0,0,1,1.391-4.223,9.17,9.17,0,0,1,3.646-2.729,12.069,12.069,0,0,1,4.826-.97,15.741,15.741,0,0,1,5.352,1.049,10.837,10.837,0,0,1,4.774,3.357Z" transform="translate(-341.37 -271.941)" fill="#fff"/>
    </g>
    <path id="Exclusion_3" data-name="Exclusion 3" d="M20.327,68.441A23.944,23.944,0,0,1,0,57.235L12.222,36.072a.111.111,0,0,1,.029-.09,24.187,24.187,0,0,0,3.158-11.922,24.025,24.025,0,0,0-3.694-12.847l5.395-9.359a3.72,3.72,0,0,1,6.438,0L41.162,32.407c.028,0,.028.029.028.059A24.026,24.026,0,0,1,20.327,68.441Zm0-30.388a8.263,8.263,0,1,0,8.265,8.265A8.272,8.272,0,0,0,20.327,38.053Z" transform="translate(156.394 255.129)" fill="#66c3ff" stroke="rgba(0,0,0,0)" stroke-miterlimit="10" stroke-width="1"/>
    <path id="Path_261" data-name="Path 261" d="M178.817,281.9a24.037,24.037,0,0,1-3.159,11.922.109.109,0,0,0-.03.089l-12.22,21.162a23.947,23.947,0,0,1-.537-24.768c0-.03,0-.06.03-.06l12.221-21.192A23.968,23.968,0,0,1,178.817,281.9Z" transform="translate(-7.013 -2.715)" fill="#3376af"/>
  </g>
</svg>
